<?xml version="1.0" encoding="UTF-8" standalone="no" ?>
<!DOCTYPE svg PUBLIC "-//W3C//DTD SVG 1.1//EN" "http://www.w3.org/Graphics/SVG/1.1/DTD/svg11.dtd">
<svg xmlns="http://www.w3.org/2000/svg" xmlns:xlink="http://www.w3.org/1999/xlink" version="1.1" width="50" height="50" viewBox="0 0 50 50" xml:space="preserve">
<desc>Created with Fabric.js 3.6.6</desc>
<defs>
</defs>
<g transform="matrix(0.31 0 0 0.31 25.32 25.66)"  >
<polygon style="stroke: rgb(120,62,62); stroke-opacity: 0; stroke-width: 8; stroke-dasharray: none; stroke-linecap: butt; stroke-dashoffset: 0; stroke-linejoin: miter; stroke-miterlimit: 4; fill: rgb(255,255,255); fill-rule: nonzero; opacity: 1;" vector-effect="non-scaling-stroke"  points="-50,-50 -50,50 50,50 50,-50 " />
</g>
<g transform="matrix(2.31 0 0 2.4 25.02 24.8)" id="verified"  >
<linearGradient id="SVGID_74" gradientUnits="userSpaceOnUse" gradientTransform="matrix(1 0 0 1 1.63 2.02)"  x1="0" y1="9.98423755906454" x2="20.740000000000002" y2="9.98423755906454">
<stop offset="0%" style="stop-color:rgba(44, 177, 255, 1);"/>
<stop offset="98.049%" style="stop-color:rgba(28, 131, 255, 1);"/>
</linearGradient>
<path style="stroke: none; stroke-width: 1; stroke-dasharray: none; stroke-linecap: butt; stroke-dashoffset: 0; stroke-linejoin: miter; stroke-miterlimit: 4; fill: url(#SVGID_74); fill-rule: nonzero; opacity: 1;"  transform=" translate(-12, -12.01)" d="M 21.6 9.84 A 4.57 4.57 0 0 1 21.18 9 A 4 4 0 0 1 21 8.07 a 4.21 4.21 0 0 0 -0.64 -2.16 a 4.25 4.25 0 0 0 -1.87 -1.28 a 4.77 4.77 0 0 1 -0.85 -0.43 A 5.11 5.11 0 0 1 17 3.54 a 4.2 4.2 0 0 0 -1.8 -1.4 A 4.22 4.22 0 0 0 13 2.21 a 4.24 4.24 0 0 1 -1.94 0 a 4.22 4.22 0 0 0 -2.24 -0.07 A 4.2 4.2 0 0 0 7 3.54 a 5.11 5.11 0 0 1 -0.66 0.66 a 4.77 4.77 0 0 1 -0.85 0.43 A 4.25 4.25 0 0 0 3.61 5.91 A 4.21 4.21 0 0 0 3 8.07 A 4 4 0 0 1 2.82 9 a 4.57 4.57 0 0 1 -0.42 0.82 A 4.3 4.3 0 0 0 1.63 12 a 4.3 4.3 0 0 0 0.77 2.16 a 4 4 0 0 1 0.42 0.82 a 4.11 4.11 0 0 1 0.15 0.95 a 4.19 4.19 0 0 0 0.64 2.16 a 4.25 4.25 0 0 0 1.87 1.28 a 4.77 4.77 0 0 1 0.85 0.43 a 5.11 5.11 0 0 1 0.66 0.66 a 4.12 4.12 0 0 0 1.8 1.4 a 3 3 0 0 0 0.87 0.13 A 6.66 6.66 0 0 0 11 21.81 a 4 4 0 0 1 1.94 0 a 4.33 4.33 0 0 0 2.24 0.06 a 4.12 4.12 0 0 0 1.8 -1.4 a 5.11 5.11 0 0 1 0.66 -0.66 a 4.77 4.77 0 0 1 0.85 -0.43 a 4.25 4.25 0 0 0 1.87 -1.28 A 4.19 4.19 0 0 0 21 15.94 a 4.11 4.11 0 0 1 0.15 -0.95 a 4.57 4.57 0 0 1 0.42 -0.82 A 4.3 4.3 0 0 0 22.37 12 A 4.3 4.3 0 0 0 21.6 9.84 Z m -4.89 0.87 l -5 5 a 1 1 0 0 1 -1.42 0 l -3 -3 a 1 1 0 1 1 1.42 -1.42 L 11 13.59 l 4.29 -4.3 a 1 1 0 0 1 1.42 1.42 Z" stroke-linecap="round" />
</g>
</svg>