<?xml version="1.0" encoding="utf-8"?>
<svg id="master-artboard" viewBox="0 0 104.19999694824219 89.2" version="1.1" xmlns="http://www.w3.org/2000/svg" x="0px" y="0px" style="enable-background:new 0 0 1400 980;" width="104.19999694824219px" height="89.19999694824219px"><rect id="ee-background" x="0" y="0" width="104.19999694824219" height="89.19999694824219" style="fill: white; fill-opacity: 0; pointer-events: none;"/>


<g transform="matrix(2.8642358779907227, 0, 0, 2.8642358779907227, -16.780371983846038, -20.136074701944985)"><path d="m21.75 37.35-2.1-1.95q-5.55-5-9.7-9.725Q5.8 20.95 5.8 15.95q0-3.8 2.6-6.375T14.8 7q2.15 0 4.575 1.175Q21.8 9.35 24 12.65q2.25-3.3 4.625-4.475Q31 7 33.2 7q3.8 0 6.4 2.575 2.6 2.575 2.6 6.375 0 5.15-4.425 9.95-4.425 4.8-9.325 9.4l-2.2 2q-1.05.9-2.25.9t-2.25-.85Z" style="fill: rgb(224, 224, 224);"/></g></svg>